<?xml version="1.0" encoding="UTF-8" standalone="no"?>
<svg
   xmlns:dc="http://purl.org/dc/elements/1.1/"
   xmlns:cc="http://creativecommons.org/ns#"
   xmlns:rdf="http://www.w3.org/1999/02/22-rdf-syntax-ns#"
   xmlns:svg="http://www.w3.org/2000/svg"
   xmlns="http://www.w3.org/2000/svg"
   viewBox="0 0 666.66669 348"
   height="348"
   width="666.66669"
   xml:space="preserve"
   id="svg2"
   version="1.1"><metadata
     id="metadata8"><rdf:RDF><cc:Work
         rdf:about=""><dc:format>image/svg+xml</dc:format><dc:type
           rdf:resource="http://purl.org/dc/dcmitype/StillImage" /></cc:Work></rdf:RDF></metadata><defs
     id="defs6"><clipPath
       id="clipPath14"
       clipPathUnits="userSpaceOnUse"><path
         id="path12"
         d="M 0,0 H 261 V 500 H 0 Z" /></clipPath></defs><g
     clip-path="url(#clipPath14)"
     transform="matrix(0,1.3333333,1.3333333,0,0,0)"
     id="g10"><g
       transform="scale(0.1)"
       id="g16"><g
         transform="scale(10)"
         id="g18"><text
           id="text24"
           style="font-variant:normal;font-weight:normal;font-size:4.40039158px;font-family:'Courier 10 Pitch';-inkscape-font-specification:Courier;writing-mode:lr-tb;fill:#000000;fill-opacity:1;fill-rule:nonzero;stroke:none"
           transform="matrix(0,1,0.89991991,0,1.61992,4.95)"><tspan
             id="tspan20"
             y="0"
             x="0 2.6402349 5.2804699 7.9207048 10.56094 13.201175 15.84141 18.481646 21.12188 23.762115 26.402349 29.042585 31.682819 34.323055 36.963291 39.603523 42.243759 44.883995 47.524231 50.164463 52.804699 55.444935 58.085171 60.725403 63.365639 66.005875">1 progenitor(clara, jose).</tspan><tspan
             id="tspan22"
             y="5.8672776"
             x="0 2.6402349 5.2804699 7.9207048 10.56094 13.201175 15.84141 18.481646 21.12188 23.762115 26.402349 29.042585 31.682819 34.323055 36.963291 39.603523 42.243759 44.883995 47.524231 50.164463 52.804699 55.444935 58.085171 60.725403 63.365639 66.005875">2 progenitor(tomas, jose).</tspan></text>
<text
           id="text28"
           style="font-variant:normal;font-weight:normal;font-size:4.40039158px;font-family:'Courier 10 Pitch';-inkscape-font-specification:Courier;writing-mode:lr-tb;fill:#000000;fill-opacity:1;fill-rule:nonzero;stroke:none"
           transform="matrix(0,1,0.89991991,0,12.1801,4.95)"><tspan
             id="tspan26"
             y="0"
             x="0 2.6402349 5.2804699 7.9207048 10.56094 13.201175 15.84141 18.481646 21.12188 23.762115 26.402349 29.042585 31.682819 34.323055 36.963291 39.603523 42.243759 44.883995 47.524231 50.164463 52.804699 55.444935 58.085171 60.725403 63.365639 66.005875 68.646111 71.286346">3 progenitor(tomas, isabel).</tspan></text>
<text
           id="text36"
           style="font-variant:normal;font-weight:normal;font-size:4.40039158px;font-family:'Courier 10 Pitch';-inkscape-font-specification:Courier;writing-mode:lr-tb;fill:#000000;fill-opacity:1;fill-rule:nonzero;stroke:none"
           transform="matrix(0,1,0.89991991,0,17.4602,4.95)"><tspan
             id="tspan30"
             y="0"
             x="0 2.6402349 5.2804699 7.9207048 10.56094 13.201175 15.84141 18.481646 21.12188 23.762115 26.402349 29.042585 31.682819 34.323055 36.963291 39.603523 42.243759 44.883995 47.524231 50.164463 52.804699 55.444935 58.085171 60.725403">4 progenitor(jose, ana).</tspan><tspan
             id="tspan32"
             y="5.8672776"
             x="0 2.6402349 5.2804699 7.9207048 10.56094 13.201175 15.84141 18.481646 21.12188 23.762115 26.402349 29.042585 31.682819 34.323055 36.963291 39.603523 42.243759 44.883995 47.524231 50.164463 52.804699 55.444935 58.085171 60.725403 63.365639 66.005875 68.646111 71.286346 73.926582">5 progenitor(jose, patricia).</tspan><tspan
             id="tspan34"
             y="11.734555"
             x="0 2.6402349 5.2804699 7.9207048 10.56094 13.201175 15.84141 18.481646 21.12188 23.762115 26.402349 29.042585 31.682819 34.323055 36.963291 39.603523 42.243759 44.883995 47.524231 50.164463 52.804699 55.444935 58.085171 60.725403 63.365639 66.005875 68.646111 71.286346 73.926582 76.566811">6 progenitor(patricia, jaime).</tspan></text>
<text
           id="text40"
           style="font-variant:normal;font-weight:normal;font-size:4.40039158px;font-family:'Courier 10 Pitch';-inkscape-font-specification:Courier;writing-mode:lr-tb;fill:#000000;fill-opacity:1;fill-rule:nonzero;stroke:none"
           transform="matrix(0,1,0.89991991,0,33.3,4.95)"><tspan
             id="tspan38"
             y="0"
             x="0 2.6402349 5.2804699 7.9207048 10.56094 13.201175 15.84141 18.481646 21.12188 23.762115 26.402349 29.042585 31.682819 34.323055 36.963291 39.603523">7 hombre(tomas).</tspan></text>
<text
           id="text44"
           style="font-variant:normal;font-weight:normal;font-size:4.40039158px;font-family:'Courier 10 Pitch';-inkscape-font-specification:Courier;writing-mode:lr-tb;fill:#000000;fill-opacity:1;fill-rule:nonzero;stroke:none"
           transform="matrix(0,1,0.89991991,0,38.5801,4.95)"><tspan
             id="tspan42"
             y="0"
             x="0 2.6402349 5.2804699 7.9207048 10.56094 13.201175 15.84141 18.481646 21.12188 23.762115 26.402349 29.042585 31.682819 34.323055 36.963291">8 hombre(jose).</tspan></text>
<text
           id="text50"
           style="font-variant:normal;font-weight:normal;font-size:4.40039158px;font-family:'Courier 10 Pitch';-inkscape-font-specification:Courier;writing-mode:lr-tb;fill:#000000;fill-opacity:1;fill-rule:nonzero;stroke:none"
           transform="matrix(0,1,0.89991991,0,43.8602,4.95)"><tspan
             id="tspan46"
             y="0"
             x="0 2.6402349 5.2804699 7.9207048 10.56094 13.201175 15.84141 18.481646 21.12188 23.762115 26.402349 29.042585 31.682819 34.323055 36.963291 39.603523">9 hombre(jaime).</tspan><tspan
             id="tspan48"
             y="5.8672776"
             x="0 2.6402349 5.2804699 7.9207048 10.56094 13.201175 15.84141 18.481646 21.12188 23.762115 26.402349 29.042585 31.682819 34.323055 36.963291 39.603523">10 mujer(clara).</tspan></text>
<text
           id="text54"
           style="font-variant:normal;font-weight:normal;font-size:4.40039158px;font-family:'Courier 10 Pitch';-inkscape-font-specification:Courier;writing-mode:lr-tb;fill:#000000;fill-opacity:1;fill-rule:nonzero;stroke:none"
           transform="matrix(0,1,0.89991991,0,54.4199,4.95)"><tspan
             id="tspan52"
             y="0"
             x="0 2.6402349 5.2804699 7.9207048 10.56094 13.201175 15.84141 18.481646 21.12188 23.762115 26.402349 29.042585 31.682819 34.323055 36.963291 39.603523 42.243759">11 mujer(isabel).</tspan></text>
<text
           id="text58"
           style="font-variant:normal;font-weight:normal;font-size:4.40039158px;font-family:'Courier 10 Pitch';-inkscape-font-specification:Courier;writing-mode:lr-tb;fill:#000000;fill-opacity:1;fill-rule:nonzero;stroke:none"
           transform="matrix(0,1,0.89991991,0,59.7,4.95)"><tspan
             id="tspan56"
             y="0"
             x="0 2.6402349 5.2804699 7.9207048 10.56094 13.201175 15.84141 18.481646 21.12188 23.762115 26.402349 29.042585 31.682819 34.323055">12 mujer(ana).</tspan></text>
<text
           id="text62"
           style="font-variant:normal;font-weight:normal;font-size:4.40039158px;font-family:'Courier 10 Pitch';-inkscape-font-specification:Courier;writing-mode:lr-tb;fill:#000000;fill-opacity:1;fill-rule:nonzero;stroke:none"
           transform="matrix(0,1,0.89991991,0,64.9801,4.95)"><tspan
             id="tspan60"
             y="0"
             x="0 2.6402349 5.2804699 7.9207048 10.56094 13.201175 15.84141 18.481646 21.12188 23.762115 26.402349 29.042585 31.682819 34.323055 36.963291 39.603523 42.243759 44.883995 47.524231">13 mujer(patricia).</tspan></text>
<text
           id="text66"
           style="font-variant:normal;font-weight:normal;font-size:4.40039158px;font-family:'Courier 10 Pitch';-inkscape-font-specification:Courier;writing-mode:lr-tb;fill:#000000;fill-opacity:1;fill-rule:nonzero;stroke:none"
           transform="matrix(0,1,0.89991991,0,70.2602,4.95)"><tspan
             id="tspan64"
             y="0"
             x="0 2.6402349 5.2804699 7.9207048 10.56094 13.201175 15.84141 18.481646 21.12188 23.762115 26.402349 29.042585 31.682819 34.323055">14 dif(X, Y):-</tspan></text>
<text
           id="text70"
           style="font-variant:normal;font-weight:normal;font-size:4.40039158px;font-family:'Courier 10 Pitch';-inkscape-font-specification:Courier;writing-mode:lr-tb;fill:#000000;fill-opacity:1;fill-rule:nonzero;stroke:none"
           transform="matrix(0,1,0.89991991,0,75.5398,23.431645)"><tspan
             id="tspan68"
             y="0"
             x="0 2.6402349 5.2804699 7.9207048 10.56094">X\=Y.</tspan></text>
<text
           id="text76"
           style="font-variant:normal;font-weight:normal;font-size:4.40039158px;font-family:'Courier 10 Pitch';-inkscape-font-specification:Courier;writing-mode:lr-tb;fill:#000000;fill-opacity:1;fill-rule:nonzero;stroke:none"
           transform="matrix(0,1,0.89991991,0,80.8199,4.95)"><tspan
             id="tspan72"
             y="0"
             x="0 2.6402349 5.2804699 7.9207048 10.56094 13.201175 15.84141 18.481646 21.12188 23.762115 26.402349 29.042585 31.682819 34.323055 36.963291 39.603523">15 es_madre(X):-</tspan><tspan
             id="tspan74"
             y="5.8672776"
             x="0 18.481646 21.12188 23.762115 26.402349 29.042585 31.682819 34.323055 36.963291 39.603523"> mujer(X),</tspan></text>
<text
           id="text80"
           style="font-variant:normal;font-weight:normal;font-size:4.40039158px;font-family:'Courier 10 Pitch';-inkscape-font-specification:Courier;writing-mode:lr-tb;fill:#000000;fill-opacity:1;fill-rule:nonzero;stroke:none"
           transform="matrix(0,1,0.89991991,0,91.3801,23.431645)"><tspan
             id="tspan78"
             y="0"
             x="0 2.6402349 5.2804699 7.9207048 10.56094 13.201175 15.84141 18.481646 21.12188 23.762115 26.402349 29.042585 31.682819 34.323055 36.963291 39.603523 42.243759 44.883995">progenitor(X, _A).</tspan></text>
<text
           id="text84"
           style="font-variant:normal;font-weight:normal;font-size:4.40039158px;font-family:'Courier 10 Pitch';-inkscape-font-specification:Courier;writing-mode:lr-tb;fill:#000000;fill-opacity:1;fill-rule:nonzero;stroke:none"
           transform="matrix(0,1,0.89991991,0,96.6602,4.95)"><tspan
             id="tspan82"
             y="0"
             x="0 2.6402349 5.2804699 7.9207048 10.56094 13.201175 15.84141 18.481646 21.12188 23.762115 26.402349 29.042585 31.682819 34.323055 36.963291 39.603523">16 es_padre(X):-</tspan></text>
<text
           id="text98"
           style="font-variant:normal;font-weight:normal;font-size:4.40039158px;font-family:'Courier 10 Pitch';-inkscape-font-specification:Courier;writing-mode:lr-tb;fill:#000000;fill-opacity:1;fill-rule:nonzero;stroke:none"
           transform="matrix(0,1,0.89991991,0,101.94,23.431645)"><tspan
             id="tspan86"
             y="0"
             x="0 2.6402349 5.2804699 7.9207048 10.56094 13.201175 15.84141 18.481646 21.12188 23.762115 26.402349 29.042585 31.682819 34.323055 36.963291 39.603523 42.243759 44.883995">progenitor(X, _A),</tspan><tspan
             id="tspan88"
             y="5.8672776"
             x="-18.481646 0 2.6402349 5.2804699 7.9207048 10.56094 13.201175 15.84141 18.481646 21.12188 23.762115"> hombre(X),</tspan><tspan
             id="tspan90"
             y="11.734555"
             x="-18.481646 0 2.6402349"> !.</tspan><tspan
             id="tspan92"
             y="17.601833"
             x="-18.481646 -15.84141 -13.201175 -10.56094 -7.9207048 -5.2804699 -2.6402349 0 2.6402349 5.2804699 7.9207048 10.56094 13.201175 15.84141 18.481646">17 es_hijo(X):-</tspan><tspan
             id="tspan94"
             y="23.46911"
             x="-18.481646 0 2.6402349 5.2804699 7.9207048 10.56094 13.201175 15.84141 18.481646 21.12188 23.762115 26.402349 29.042585 31.682819 34.323055 36.963291 39.603523 42.243759 44.883995"> progenitor(_A, X),</tspan><tspan
             id="tspan96"
             y="29.336388"
             x="-18.481646 0 2.6402349"> !.</tspan></text>
<text
           id="text104"
           style="font-variant:normal;font-weight:normal;font-size:4.40039158px;font-family:'Courier 10 Pitch';-inkscape-font-specification:Courier;writing-mode:lr-tb;fill:#000000;fill-opacity:1;fill-rule:nonzero;stroke:none"
           transform="matrix(0,1,0.89991991,0,133.62,4.95)"><tspan
             id="tspan100"
             y="0"
             x="0 2.6402349 5.2804699 7.9207048 10.56094 13.201175 15.84141 18.481646 21.12188 23.762115 26.402349 29.042585 31.682819 34.323055 36.963291 39.603523 42.243759 44.883995 47.524231 50.164463 52.804699">18 hermana_de(X, Y):-</tspan><tspan
             id="tspan102"
             y="5.8672776"
             x="0 18.481646 21.12188 23.762115 26.402349 29.042585 31.682819 34.323055 36.963291 39.603523"> mujer(X),</tspan></text>
<text
           id="text116"
           style="font-variant:normal;font-weight:normal;font-size:4.40039158px;font-family:'Courier 10 Pitch';-inkscape-font-specification:Courier;writing-mode:lr-tb;fill:#000000;fill-opacity:1;fill-rule:nonzero;stroke:none"
           transform="matrix(0,1,0.89991991,0,144.18,23.431645)"><tspan
             id="tspan106"
             y="0"
             x="0 2.6402349 5.2804699 7.9207048 10.56094 13.201175 15.84141 18.481646 21.12188 23.762115">dif(X, Y),</tspan><tspan
             id="tspan108"
             y="5.8672776"
             x="-18.481646 0 2.6402349 5.2804699 7.9207048 10.56094 13.201175 15.84141 18.481646 21.12188 23.762115 26.402349 29.042585 31.682819 34.323055 36.963291 39.603523 42.243759"> progenitor(Z, X),</tspan><tspan
             id="tspan110"
             y="11.734555"
             x="-18.481646 0 2.6402349 5.2804699 7.9207048 10.56094 13.201175 15.84141 18.481646 21.12188 23.762115 26.402349 29.042585 31.682819 34.323055 36.963291 39.603523 42.243759"> progenitor(Z, Y),</tspan><tspan
             id="tspan112"
             y="17.601833"
             x="-18.481646 0 2.6402349"> !.</tspan><tspan
             id="tspan114"
             y="23.46911"
             x="-18.481646 -15.84141 -13.201175 -10.56094 -7.9207048 -5.2804699 -2.6402349 0 2.6402349 5.2804699 7.9207048 10.56094 13.201175 15.84141 18.481646 21.12188 23.762115 26.402349 29.042585 31.682819">19 abuelo_de(X, Y):-</tspan></text>
<text
           id="text120"
           style="font-variant:normal;font-weight:normal;font-size:4.40039158px;font-family:'Courier 10 Pitch';-inkscape-font-specification:Courier;writing-mode:lr-tb;fill:#000000;fill-opacity:1;fill-rule:nonzero;stroke:none"
           transform="matrix(0,1,0.89991991,0,170.58,23.431645)"><tspan
             id="tspan118"
             y="0"
             x="0 2.6402349 5.2804699 7.9207048 10.56094 13.201175 15.84141 18.481646 21.12188 23.762115 26.402349 29.042585 31.682819 34.323055 36.963291 39.603523 42.243759 44.883995 47.524231 50.164463 52.804699 55.444935 58.085171 60.725403 63.365639 66.005875 68.646111 71.286346 73.926582 76.566811 79.207047 81.847282 84.487518 87.127754 89.76799">progenitor(Z, Y), progenitor(X, Z),</tspan></text>
<text
           id="text128"
           style="font-variant:normal;font-weight:normal;font-size:4.40039158px;font-family:'Courier 10 Pitch';-inkscape-font-specification:Courier;writing-mode:lr-tb;fill:#000000;fill-opacity:1;fill-rule:nonzero;stroke:none"
           transform="matrix(0,1,0.89991991,0,175.86,23.431645)"><tspan
             id="tspan122"
             y="0"
             x="0 2.6402349 5.2804699 7.9207048 10.56094 13.201175 15.84141 18.481646 21.12188 23.762115">hombre(X),</tspan><tspan
             id="tspan124"
             y="5.8672776"
             x="-18.481646 0 2.6402349"> !.</tspan><tspan
             id="tspan126"
             y="11.734555"
             x="-18.481646 -15.84141 -13.201175 -10.56094 -7.9207048 -5.2804699 -2.6402349 0 2.6402349 5.2804699 7.9207048 10.56094 13.201175 15.84141 18.481646 21.12188 23.762115 26.402349 29.042585 31.682819">20 abuela_de(X, Y):-</tspan></text>
<text
           id="text134"
           style="font-variant:normal;font-weight:normal;font-size:4.40039158px;font-family:'Courier 10 Pitch';-inkscape-font-specification:Courier;writing-mode:lr-tb;fill:#000000;fill-opacity:1;fill-rule:nonzero;stroke:none"
           transform="matrix(0,1,0.89991991,0,191.7,23.431645)"><tspan
             id="tspan130"
             y="0"
             x="0 2.6402349 5.2804699 7.9207048 10.56094 13.201175 15.84141 18.481646 21.12188 23.762115 26.402349 29.042585 31.682819 34.323055 36.963291 39.603523 42.243759 44.883995 47.524231 50.164463 52.804699 55.444935 58.085171 60.725403 63.365639 66.005875 68.646111 71.286346 73.926582 76.566811 79.207047 81.847282 84.487518 87.127754 89.76799">progenitor(Z, Y), progenitor(X, Z),</tspan><tspan
             id="tspan132"
             y="5.8672776"
             x="-18.481646 0 2.6402349 5.2804699 7.9207048 10.56094 13.201175 15.84141 18.481646 21.12188"> mujer(X),</tspan></text>
<text
           id="text146"
           style="font-variant:normal;font-weight:normal;font-size:4.40039158px;font-family:'Courier 10 Pitch';-inkscape-font-specification:Courier;writing-mode:lr-tb;fill:#000000;fill-opacity:1;fill-rule:nonzero;stroke:none"
           transform="matrix(0,1,0.89991991,0,202.26,23.431645)"><tspan
             id="tspan136"
             y="0"
             x="0 2.6402349">!.</tspan><tspan
             id="tspan138"
             y="5.8672776"
             x="-18.481646 -15.84141 -13.201175 -10.56094 -7.9207048 -5.2804699 -2.6402349 0 2.6402349 5.2804699 7.9207048 10.56094 13.201175 15.84141 18.481646 21.12188 23.762115 26.402349 29.042585">21 hermanos(X, Y):-</tspan><tspan
             id="tspan140"
             y="11.734555"
             x="-18.481646 0 2.6402349 5.2804699 7.9207048 10.56094 13.201175 15.84141 18.481646 21.12188 23.762115 26.402349 29.042585 31.682819 34.323055 36.963291 39.603523 42.243759"> progenitor(Z, X),</tspan><tspan
             id="tspan142"
             y="17.601833"
             x="-18.481646 0 2.6402349 5.2804699 7.9207048 10.56094 13.201175 15.84141 18.481646 21.12188 23.762115 26.402349 29.042585 31.682819 34.323055 36.963291 39.603523 42.243759"> progenitor(Z, Y),</tspan><tspan
             id="tspan144"
             y="23.46911"
             x="-18.481646 0 2.6402349 5.2804699 7.9207048 10.56094 13.201175 15.84141 18.481646 21.12188 23.762115"> dif(X, Y).</tspan></text>
<text
           id="text150"
           style="font-variant:normal;font-weight:normal;font-size:4.40039158px;font-family:'Courier 10 Pitch';-inkscape-font-specification:Courier;writing-mode:lr-tb;fill:#000000;fill-opacity:1;fill-rule:nonzero;stroke:none"
           transform="matrix(0,1,0.89991991,0,228.66,4.95)"><tspan
             id="tspan148"
             y="0"
             x="0 2.6402349 5.2804699 7.9207048 10.56094 13.201175 15.84141 18.481646 21.12188 23.762115 26.402349 29.042585 31.682819 34.323055">22 tia(X, Y):-</tspan></text>
<text
           id="text158"
           style="font-variant:normal;font-weight:normal;font-size:4.40039158px;font-family:'Courier 10 Pitch';-inkscape-font-specification:Courier;writing-mode:lr-tb;fill:#000000;fill-opacity:1;fill-rule:nonzero;stroke:none"
           transform="matrix(0,1,0.89991991,0,233.94,23.431645)"><tspan
             id="tspan152"
             y="0"
             x="0 2.6402349 5.2804699 7.9207048 10.56094 13.201175 15.84141 18.481646 21.12188 23.762115 26.402349 29.042585 31.682819 34.323055 36.963291 39.603523 42.243759">progenitor(Z, Y),</tspan><tspan
             id="tspan154"
             y="5.8672776"
             x="-18.481646 0 2.6402349 5.2804699 7.9207048 10.56094 13.201175 15.84141 18.481646 21.12188 23.762115 26.402349 29.042585 31.682819 34.323055 36.963291 39.603523 42.243759"> hermana_de(X, Z),</tspan><tspan
             id="tspan156"
             y="11.734555"
             x="-18.481646 0 2.6402349"> !.</tspan></text>
</g><path
         id="path160"
         style="fill:none;stroke:#000000;stroke-width:1.64999998;stroke-linecap:butt;stroke-linejoin:miter;stroke-miterlimit:10;stroke-dasharray:none;stroke-opacity:1"
         d="m 2474.7,99 h 132" /><path
         id="path162"
         style="fill:#000000;fill-opacity:1;fill-rule:nonzero;stroke:none"
         d="m 2573.7,89.1016 33,9.8984 -33,9.898" /><path
         id="path164"
         style="fill:none;stroke:#000000;stroke-width:1.64999998;stroke-linecap:butt;stroke-linejoin:miter;stroke-miterlimit:10;stroke-dasharray:none;stroke-opacity:1"
         d="M 2540.7,33 V 165" /><path
         id="path166"
         style="fill:#000000;fill-opacity:1;fill-rule:nonzero;stroke:none"
         d="m 2550.6,132 -9.9,33 -9.9,-33" /><path
         id="path168"
         style="fill:#00ff00;fill-opacity:1;fill-rule:nonzero;stroke:none"
         d="m 2540.7,130.352 c 17.31,0 31.35,-14.039 31.35,-31.352 0,-17.3125 -14.04,-31.3516 -31.35,-31.3516 -17.31,0 -31.35,14.0391 -31.35,31.3516 0,17.313 14.04,31.352 31.35,31.352" /><path
         id="path170"
         style="fill:none;stroke:#000000;stroke-width:1.64999998;stroke-linecap:butt;stroke-linejoin:miter;stroke-miterlimit:10;stroke-dasharray:none;stroke-opacity:1"
         d="m 2540.7,130.352 c 17.31,0 31.35,-14.039 31.35,-31.352 0,-17.3125 -14.04,-31.3516 -31.35,-31.3516 -17.31,0 -31.35,14.0391 -31.35,31.3516 0,17.313 14.04,31.352 31.35,31.352" /><g
         transform="scale(10)"
         id="g172"><text
           id="text176"
           style="font-variant:normal;font-weight:normal;font-size:4.40039158px;font-family:'Courier 10 Pitch';-inkscape-font-specification:Courier;writing-mode:lr-tb;fill:#00008c;fill-opacity:1;fill-rule:nonzero;stroke:none"
           transform="matrix(0,1,0.89991991,0,1.61992,278.52)"><tspan
             id="tspan174"
             y="0"
             x="0 2.6402349 5.2804699 7.9207048 10.56094 13.201175 15.84141 18.481646 21.12188 23.762115 26.402349 29.042585 31.682819 34.323055">1) es_madre(X)</tspan></text>
<text
           id="text180"
           style="font-variant:normal;font-weight:normal;font-size:4.40039158px;font-family:'Courier 10 Pitch';-inkscape-font-specification:Courier;writing-mode:lr-tb;fill:#00008c;fill-opacity:1;fill-rule:nonzero;stroke:none"
           transform="matrix(0,1,0.89991991,0,37.9199,256.08)"><tspan
             id="tspan178"
             y="0"
             x="0 2.6402349 5.2804699 7.9207048 10.56094 13.201175 15.84141 18.481646 21.12188 23.762115 26.402349 29.042585 31.682819 34.323055 36.963291 39.603523 42.243759 44.883995 47.524231 50.164463 52.804699 55.444935 58.085171 60.725403 63.365639 66.005875 68.646111 71.286346 73.926582 76.566811 79.207047">2) mujer(X), progenitor(X, _A1)</tspan></text>
</g><path
         id="path182"
         style="fill:none;stroke:#000000;stroke-width:1.64999998;stroke-linecap:butt;stroke-linejoin:miter;stroke-miterlimit:10;stroke-dasharray:none;stroke-opacity:1"
         d="M 29.3984,2970 H 339.602" /><path
         id="path184"
         style="fill:#000000;fill-opacity:1;fill-rule:nonzero;stroke:none"
         d="m 306.602,2960.1 33,9.9 -33,9.9" /><g
         transform="scale(10)"
         id="g186"><text
           id="text190"
           style="font-variant:normal;font-weight:normal;font-size:4.40039158px;font-family:'Courier 10 Pitch';-inkscape-font-specification:Courier;writing-mode:lr-tb;fill:#b8870a;fill-opacity:1;fill-rule:nonzero;stroke:none"
           transform="matrix(0,1,0.89991991,0,17.1301,282.48)"><tspan
             id="tspan188"
             y="0"
             x="0 2.6402349 5.2804699 7.9207048 10.56094 13.201175 15.84141 18.481646 21.12188 23.762115 26.402349">15 - {X1/X}</tspan></text>
</g><g
         transform="scale(10)"
         id="g192"><text
           id="text196"
           style="font-variant:normal;font-weight:normal;font-size:4.40039158px;font-family:'Courier 10 Pitch';-inkscape-font-specification:Courier;writing-mode:lr-tb;fill:#00008c;fill-opacity:1;fill-rule:nonzero;stroke:none"
           transform="matrix(0,1,0.89991991,0,74.2199,94.3801)"><tspan
             id="tspan194"
             y="0"
             x="0 2.6402349 5.2804699 7.9207048 10.56094 13.201175 15.84141 18.481646 21.12188 23.762115 26.402349 29.042585 31.682819 34.323055 36.963291 39.603523 42.243759 44.883995 47.524231 50.164463 52.804699 55.444935 58.085171 60.725403 63.365639">3) progenitor(clara, _A1)</tspan></text>
</g><path
         id="path198"
         style="fill:none;stroke:#000000;stroke-width:1.64999998;stroke-linecap:butt;stroke-linejoin:miter;stroke-miterlimit:10;stroke-dasharray:none;stroke-opacity:1"
         d="M 392.398,2970 702.602,1273.8" /><path
         id="path200"
         style="fill:#000000;fill-opacity:1;fill-rule:nonzero;stroke:none"
         d="m 686.102,1303.5 16.5,-29.7 3.296,36.3" /><g
         transform="scale(10)"
         id="g202"><text
           id="text206"
           style="font-variant:normal;font-weight:normal;font-size:4.40039158px;font-family:'Courier 10 Pitch';-inkscape-font-specification:Courier;writing-mode:lr-tb;fill:#b8870a;fill-opacity:1;fill-rule:nonzero;stroke:none"
           transform="matrix(0,1,0.89991991,0,58.7102,193.71)"><tspan
             id="tspan204"
             y="0"
             x="0 2.6402349 5.2804699 7.9207048 10.56094 13.201175 15.84141 18.481646 21.12188 23.762115 26.402349 29.042585 31.682819 34.323055">10 - {X/clara}</tspan></text>
</g><g
         transform="scale(10)"
         id="g208"><text
           id="text212"
           style="font-variant:normal;font-weight:normal;font-size:4.40039158px;font-family:'Courier 10 Pitch';-inkscape-font-specification:Courier;writing-mode:lr-tb;fill:#006300;fill-opacity:1;fill-rule:nonzero;stroke:none"
           transform="matrix(0,1,0.89991991,0,110.52,116.82)"><tspan
             id="tspan210"
             y="0"
             x="0 2.6402349 5.2804699 7.9207048 10.56094 13.201175 15.84141 18.481646">4. Øxito</tspan></text>
<text
           id="text216"
           style="font-variant:normal;font-weight:normal;font-size:4.40039158px;font-family:'Courier 10 Pitch';-inkscape-font-specification:Courier;writing-mode:lr-tb;fill:#006300;fill-opacity:1;fill-rule:nonzero;stroke:none"
           transform="matrix(0,1,0.89991991,0,115.8,115.5)"><tspan
             id="tspan214"
             y="0"
             x="0 2.6402349 5.2804699 7.9207048 10.56094 13.201175 15.84141 18.481646 21.12188">{X/clara}</tspan></text>
</g><path
         id="path218"
         style="fill:none;stroke:#000000;stroke-width:1.64999998;stroke-linecap:butt;stroke-linejoin:miter;stroke-miterlimit:10;stroke-dasharray:none;stroke-opacity:1"
         d="M 755.398,1273.8 H 1065.6" /><path
         id="path220"
         style="fill:#000000;fill-opacity:1;fill-rule:nonzero;stroke:none"
         d="m 1032.6,1263.9 33,9.9 -33,9.9" /><g
         transform="scale(10)"
         id="g222"><text
           id="text226"
           style="font-variant:normal;font-weight:normal;font-size:4.40039158px;font-family:'Courier 10 Pitch';-inkscape-font-specification:Courier;writing-mode:lr-tb;fill:#b8870a;fill-opacity:1;fill-rule:nonzero;stroke:none"
           transform="matrix(0,1,0.89991991,0,89.7301,108.9)"><tspan
             id="tspan224"
             y="0"
             x="0 2.6402349 5.2804699 7.9207048 10.56094 13.201175 15.84141 18.481646 21.12188 23.762115 26.402349 29.042585 31.682819 34.323055">1 - {_A1/jose}</tspan></text>
</g><g
         transform="scale(10)"
         id="g228"><text
           id="text234"
           style="font-variant:normal;font-weight:normal;font-size:4.40039158px;font-family:'Courier 10 Pitch';-inkscape-font-specification:Courier;writing-mode:lr-tb;fill:#ff0000;fill-opacity:1;fill-rule:nonzero;stroke:none"
           transform="matrix(0,1,0.89991991,0,74.2199,206.25)"><tspan
             id="tspan230"
             y="0"
             x="0 2.6402349 5.2804699 7.9207048 10.56094 13.201175 15.84141 18.481646 21.12188 23.762115 26.402349 29.042585 31.682819 34.323055 36.963291 39.603523 42.243759 44.883995 47.524231 50.164463 52.804699 55.444935 58.085171 60.725403 63.365639 66.005875">5) progenitor(isabel, _A1)</tspan><tspan
             id="tspan232"
             y="5.8672776"
             x="27.719801 30.360035 33.000271 35.640507 38.280739">fallo</tspan></text>
</g><path
         id="path236"
         style="fill:none;stroke:#000000;stroke-width:1.64999998;stroke-linecap:butt;stroke-linejoin:miter;stroke-miterlimit:10;stroke-dasharray:none;stroke-opacity:1"
         d="M 392.398,2970 702.602,2405.7" /><path
         id="path238"
         style="fill:#000000;fill-opacity:1;fill-rule:nonzero;stroke:none"
         d="M 676.199,2428.8 702.602,2405.7 696,2442" /><g
         transform="scale(10)"
         id="g240"><text
           id="text244"
           style="font-variant:normal;font-weight:normal;font-size:4.40039158px;font-family:'Courier 10 Pitch';-inkscape-font-specification:Courier;writing-mode:lr-tb;fill:#b8870a;fill-opacity:1;fill-rule:nonzero;stroke:none"
           transform="matrix(0,1,0.89991991,0,53.4301,249.15)"><tspan
             id="tspan242"
             y="0"
             x="0 2.6402349 5.2804699 7.9207048 10.56094 13.201175 15.84141 18.481646 21.12188 23.762115 26.402349 29.042585 31.682819 34.323055 36.963291">11 - {X/isabel}</tspan></text>
</g><g
         transform="scale(10)"
         id="g246"><text
           id="text252"
           style="font-variant:normal;font-weight:normal;font-size:4.40039158px;font-family:'Courier 10 Pitch';-inkscape-font-specification:Courier;writing-mode:lr-tb;fill:#ff0000;fill-opacity:1;fill-rule:nonzero;stroke:none"
           transform="matrix(0,1,0.89991991,0,74.2199,323.4)"><tspan
             id="tspan248"
             y="0"
             x="0 2.6402349 5.2804699 7.9207048 10.56094 13.201175 15.84141 18.481646 21.12188 23.762115 26.402349 29.042585 31.682819 34.323055 36.963291 39.603523 42.243759 44.883995 47.524231 50.164463 52.804699 55.444935 58.085171">6) progenitor(ana, _A1)</tspan><tspan
             id="tspan250"
             y="5.8672776"
             x="23.760115 26.400349 29.040585 31.680819 34.321053">fallo</tspan></text>
</g><path
         id="path254"
         style="fill:none;stroke:#000000;stroke-width:1.64999998;stroke-linecap:butt;stroke-linejoin:miter;stroke-miterlimit:10;stroke-dasharray:none;stroke-opacity:1"
         d="m 392.398,2970 310.204,567.6" /><path
         id="path256"
         style="fill:#000000;fill-opacity:1;fill-rule:nonzero;stroke:none"
         d="m 696,3501.3 6.602,36.3 -26.403,-23.1" /><g
         transform="scale(10)"
         id="g258"><text
           id="text262"
           style="font-variant:normal;font-weight:normal;font-size:4.40039158px;font-family:'Courier 10 Pitch';-inkscape-font-specification:Courier;writing-mode:lr-tb;fill:#b8870a;fill-opacity:1;fill-rule:nonzero;stroke:none"
           transform="matrix(0,1,0.89991991,0,58.7102,309.54)"><tspan
             id="tspan260"
             y="0"
             x="0 2.6402349 5.2804699 7.9207048 10.56094 13.201175 15.84141 18.481646 21.12188 23.762115 26.402349 29.042585">12 - {X/ana}</tspan></text>
</g><g
         transform="scale(10)"
         id="g264"><text
           id="text268"
           style="font-variant:normal;font-weight:normal;font-size:4.40039158px;font-family:'Courier 10 Pitch';-inkscape-font-specification:Courier;writing-mode:lr-tb;fill:#00008c;fill-opacity:1;fill-rule:nonzero;stroke:none"
           transform="matrix(0,1,0.89991991,0,74.2199,429.99)"><tspan
             id="tspan266"
             y="0"
             x="0 2.6402349 5.2804699 7.9207048 10.56094 13.201175 15.84141 18.481646 21.12188 23.762115 26.402349 29.042585 31.682819 34.323055 36.963291 39.603523 42.243759 44.883995 47.524231 50.164463 52.804699 55.444935 58.085171 60.725403 63.365639 66.005875 68.646111 71.286346">7) progenitor(patricia, _A1)</tspan></text>
</g><path
         id="path270"
         style="fill:none;stroke:#000000;stroke-width:1.64999998;stroke-linecap:butt;stroke-linejoin:miter;stroke-miterlimit:10;stroke-dasharray:none;stroke-opacity:1"
         d="M 392.398,2970 702.602,4669.5" /><path
         id="path272"
         style="fill:#000000;fill-opacity:1;fill-rule:nonzero;stroke:none"
         d="m 705.898,4633.2 -3.296,36.3 -16.5,-29.7" /><g
         transform="scale(10)"
         id="g274"><text
           id="text278"
           style="font-variant:normal;font-weight:normal;font-size:4.40039158px;font-family:'Courier 10 Pitch';-inkscape-font-specification:Courier;writing-mode:lr-tb;fill:#b8870a;fill-opacity:1;fill-rule:nonzero;stroke:none"
           transform="matrix(0,1,0.89991991,0,53.4301,359.7)"><tspan
             id="tspan276"
             y="0"
             x="0 2.6402349 5.2804699 7.9207048 10.56094 13.201175 15.84141 18.481646 21.12188 23.762115 26.402349 29.042585 31.682819 34.323055 36.963291 39.603523 42.243759">13 - {X/patricia}</tspan></text>
</g><g
         transform="scale(10)"
         id="g280"><text
           id="text284"
           style="font-variant:normal;font-weight:normal;font-size:4.40039158px;font-family:'Courier 10 Pitch';-inkscape-font-specification:Courier;writing-mode:lr-tb;fill:#006300;fill-opacity:1;fill-rule:nonzero;stroke:none"
           transform="matrix(0,1,0.89991991,0,110.52,456.39)"><tspan
             id="tspan282"
             y="0"
             x="0 2.6402349 5.2804699 7.9207048 10.56094 13.201175 15.84141 18.481646">8. Øxito</tspan></text>
<text
           id="text288"
           style="font-variant:normal;font-weight:normal;font-size:4.40039158px;font-family:'Courier 10 Pitch';-inkscape-font-specification:Courier;writing-mode:lr-tb;fill:#006300;fill-opacity:1;fill-rule:nonzero;stroke:none"
           transform="matrix(0,1,0.89991991,0,115.8,451.11)"><tspan
             id="tspan286"
             y="0"
             x="0 2.6402349 5.2804699 7.9207048 10.56094 13.201175 15.84141 18.481646 21.12188 23.762115 26.402349 29.042585">{X/patricia}</tspan></text>
</g><path
         id="path290"
         style="fill:none;stroke:#000000;stroke-width:1.64999998;stroke-linecap:butt;stroke-linejoin:miter;stroke-miterlimit:10;stroke-dasharray:none;stroke-opacity:1"
         d="M 755.398,4669.5 H 1065.6" /><path
         id="path292"
         style="fill:#000000;fill-opacity:1;fill-rule:nonzero;stroke:none"
         d="m 1032.6,4659.6 33,9.9 -33,9.9" /><g
         transform="scale(10)"
         id="g294"><text
           id="text298"
           style="font-variant:normal;font-weight:normal;font-size:4.40039158px;font-family:'Courier 10 Pitch';-inkscape-font-specification:Courier;writing-mode:lr-tb;fill:#b8870a;fill-opacity:1;fill-rule:nonzero;stroke:none"
           transform="matrix(0,1,0.89991991,0,95.0102,447.15)"><tspan
             id="tspan296"
             y="0"
             x="0 2.6402349 5.2804699 7.9207048 10.56094 13.201175 15.84141 18.481646 21.12188 23.762115 26.402349 29.042585 31.682819 34.323055 36.963291">6 - {_A1/jaime}</tspan></text>
</g></g></g></svg>